<svg xmlns="http://www.w3.org/2000/svg" xmlns:xlink="http://www.w3.org/1999/xlink" version="1.1" x="0px" y="0px" viewBox="0 0 32 32" width="54" enable-background="new 0 0 32 32" xml:space="preserve"><path d="M16 0C7.2 0 0 7.2 0 16s7.2 16 16 16s16-7.2 16-16S24.8 0 16 0z M26.6 7.4c1.9 2.3 3.1 5.3 3.1 8.5c-0.5-0.1-5-1-9.5-0.4 c-0.1-0.2-0.2-0.5-0.3-0.7c-0.3-0.7-0.6-1.3-0.9-2C24 10.7 26.3 7.8 26.6 7.4z M16 2.4c3.5 0 6.6 1.3 9.1 3.4 c-0.2 0.4-2.3 3.1-7.2 4.9c-2.2-4.1-4.7-7.5-5.1-8C13.8 2.5 14.9 2.4 16 2.4z M10.2 3.7c0.4 0.5 2.8 3.9 5.1 7.9 c-6.4 1.7-12 1.7-12.6 1.7C3.5 9 6.4 5.5 10.2 3.7z M2.3 16c0-0.1 0-0.3 0-0.4c0.6 0 7.2 0.1 14-1.9c0.4 0.8 0.8 1.5 1.1 2.3 c-0.2 0.1-0.4 0.1-0.5 0.2c-7 2.3-10.8 8.5-11.1 9C3.7 22.7 2.3 19.5 2.3 16z M16 29.7c-3.2 0-6.1-1.1-8.4-2.9 c0.2-0.5 3-5.8 10.7-8.5c0 0 0.1 0 0.1 0c1.9 5 2.7 9.2 2.9 10.4C19.7 29.3 17.9 29.7 16 29.7z M23.6 27.3 c-0.1-0.8-0.9-4.8-2.7-9.7c4.3-0.7 8 0.4 8.5 0.6C28.9 22 26.7 25.3 23.6 27.3z"/></svg>