<?xml version="1.0" encoding="utf-8"?>
<!-- Generator: Adobe Illustrator 18.1.1, SVG Export Plug-In . SVG Version: 6.00 Build 0)  -->
<svg version="1.1" id="Layer_1" xmlns="http://www.w3.org/2000/svg" xmlns:xlink="http://www.w3.org/1999/xlink" x="0px" y="0px"
	 viewBox="0 0 355 355" enable-background="new 0 0 355 355" xml:space="preserve">
<g>
	<polygon fill="#C6E5F4" points="67.4,182.6 288.4,182.6 280.7,218.3 263.6,247.5 243.7,266.5 221.2,279.4 196.4,288.1 177.9,288.1 
		152.6,285.2 126.1,275.2 100.4,256.3 82.1,232.7 65,186.6 	"/>
	<g>
		<path fill="none" stroke="#8BADC6" stroke-width="3" stroke-miterlimit="10" d="M129.9,198.4c-3.7-0.3-7-1.3-9.8-2.5
			c-4.8-2.1-7.9-4.8-7.9-4.8s-3.1,2.7-7.9,4.8c-2.8,1.2-6.1,2.3-9.8,2.5"/>
	</g>
	<g>
		<path fill="none" stroke="#8BADC6" stroke-width="3" stroke-miterlimit="10" d="M261.3,198.4c-3.7-0.3-7-1.3-9.8-2.5
			c-4.8-2.1-7.9-4.8-7.9-4.8s-3.1,2.7-7.9,4.8c-2.8,1.2-6.1,2.3-9.8,2.5"/>
	</g>
	<g>
		<path fill="none" stroke="#8BADC6" stroke-width="3" stroke-miterlimit="10" d="M195.6,273.1c-3.7-0.3-7-1.3-9.8-2.5
			c-4.8-2.1-7.9-4.8-7.9-4.8s-3.1,2.7-7.9,4.8c-2.8,1.2-6.1,2.3-9.8,2.5"/>
	</g>
	<g>
		<path fill="none" stroke="#FFFFFF" stroke-miterlimit="10" d="M256.5,201.4c-2.6-0.2-5.1-0.9-7.1-1.8c-3.5-1.5-5.7-3.5-5.7-3.5
			s-2.2,1.9-5.7,3.5c-2,0.9-4.4,1.6-7.1,1.8"/>
	</g>
	<g>
		<path fill="none" stroke="#FFFFFF" stroke-miterlimit="10" d="M125,201.4c-2.6-0.2-5.1-0.9-7.1-1.8c-3.5-1.5-5.7-3.5-5.7-3.5
			s-2.2,1.9-5.7,3.5c-2,0.9-4.4,1.6-7.1,1.8"/>
	</g>
</g>
<g>
	<g>
		<g>
			<path fill="#353535" d="M100.5,229.7c-0.7,0-1.1-0.4-1.1-1.1V213c0-0.7,0.4-1.1,1.1-1.1h2.1c0.6,0,1,0.2,1.3,0.7l5.5,8V213
				c0-0.7,0.4-1.1,1.1-1.1h2.4c0.7,0,1.1,0.4,1.1,1.1v15.6c0,0.7-0.4,1.1-1.1,1.1h-2.1c-0.6,0-1-0.2-1.3-0.7l-5.5-8.1v7.7
				c0,0.7-0.4,1.1-1.1,1.1H100.5z"/>
			<path fill="#353535" d="M122.3,222.9v2.3h6.8c0.7,0,1.1,0.4,1.1,1.1v2.4c0,0.7-0.4,1.1-1.1,1.1h-10.3c-0.7,0-1.1-0.4-1.1-1.1V213
				c0-0.7,0.4-1.1,1.1-1.1h10.3c0.7,0,1.1,0.4,1.1,1.1v2.4c0,0.7-0.4,1.1-1.1,1.1h-6.8v2.2h5c0.7,0,1.1,0.4,1.1,1.1v2
				c0,0.7-0.4,1.1-1.1,1.1H122.3z"/>
			<path fill="#353535" d="M138,229.7c-0.6,0-1.1-0.3-1.2-1l-3.4-15.6c-0.2-0.7,0.2-1.2,1-1.2h2.4c0.6,0,1.1,0.3,1.2,1l1.7,7.8
				l2.1-7.8c0.2-0.6,0.6-0.9,1.2-0.9h2.6c0.6,0,1,0.3,1.2,0.9l2.1,7.8l1.7-7.8c0.1-0.6,0.6-1,1.2-1h2.4c0.8,0,1.1,0.4,1,1.2
				l-3.4,15.6c-0.1,0.6-0.6,1-1.2,1h-2.8c-0.6,0-1-0.3-1.2-0.9l-2.3-8.4l-2.3,8.4c-0.2,0.6-0.6,0.9-1.2,0.9H138z"/>
			<path fill="#353535" d="M166.1,230.1c-2.6,0-4.9-1-6.6-2.7s-2.7-4-2.7-6.6c0-2.6,1-4.9,2.7-6.6s4-2.7,6.6-2.7
				c2.5,0,4.8,1,6.6,2.7c0.5,0.5,0.4,1.1-0.1,1.5l-1.9,1.5c-0.6,0.5-1,0.4-1.5-0.1c-0.9-0.7-1.9-1.1-3-1.1c-1.3,0-2.5,0.6-3.4,1.4
				c-0.9,0.9-1.4,2.1-1.4,3.4s0.6,2.5,1.4,3.4c0.9,0.9,2.1,1.4,3.4,1.4c1.1,0,2.1-0.3,2.9-1c0.6-0.4,1-0.5,1.5,0l1.8,1.6
				c0.6,0.5,0.6,1,0.1,1.5C170.7,229.2,168.5,230.1,166.1,230.1z"/>
			<path fill="#353535" d="M184.3,211.9c0.6,0,1,0.3,1.2,0.9l5.5,15.6c0.3,0.8,0,1.2-0.9,1.2h-2.6c-0.6,0-1-0.3-1.2-0.9l-0.7-2.2
				h-5.3l-0.7,2.2c-0.2,0.6-0.6,0.9-1.2,0.9h-2.6c-0.8,0-1.2-0.5-0.9-1.2l5.5-15.6c0.2-0.6,0.6-0.9,1.2-0.9H184.3z M184.5,222.7
				l-1.7-4.9l-1.5,4.9H184.5z"/>
			<path fill="#353535" d="M202.8,225.4c0.3-0.2,0.4-0.5,0.5-0.7c0-0.3,0-0.5-0.2-0.7c-0.1-0.1-0.2-0.1-0.3-0.2
				c-0.3-0.2-0.7-0.4-1.6-0.6c-0.4-0.1-1-0.2-1.6-0.4c-2.6-0.6-4.9-1.6-5.9-2.9c-0.5-0.7-0.7-1.5-0.8-2.3s0-1.4,0.2-2
				c0.4-1.2,1.3-2.3,2.6-3c1.2-0.7,2.8-1.1,4.5-1.1c1.4,0,2.6,0.2,3.6,0.5c1,0.3,1.8,0.7,2.4,1.1c0.6,0.4,0.7,0.9,0.2,1.5l-1.3,1.8
				c-0.4,0.6-0.9,0.7-1.5,0.3c-0.9-0.5-2.1-1-3.4-1c-0.9,0-1.5,0.2-1.8,0.4c-0.4,0.2-0.6,0.5-0.6,0.7c-0.2,0.5,0,0.8,0.5,1.1
				c0.4,0.3,1.1,0.4,1.8,0.6c3.7,0.7,5.8,1.7,6.6,2.9c0.9,1.2,1.2,2.7,0.9,4.2c-0.2,1.2-0.8,2.3-1.9,3.2c-1.1,0.9-2.8,1.5-5.1,1.5
				h-0.4c-0.2,0-0.3,0-0.5,0c-1.8-0.1-4-0.5-6.4-1.8c-0.6-0.4-0.7-0.9-0.3-1.5l1.6-2c0.4-0.6,0.9-0.6,1.5-0.3
				c1.2,0.7,2.2,1.1,3.6,1.2S202.3,225.8,202.8,225.4z"/>
			<path fill="#353535" d="M215,229.7c-0.7,0-1.1-0.4-1.1-1.1v-12.1h-3.7c-0.7,0-1.1-0.4-1.1-1.1V213c0-0.7,0.4-1.1,1.1-1.1h11.9
				c0.7,0,1.1,0.4,1.1,1.1v2.4c0,0.7-0.4,1.1-1.1,1.1h-3.7v12.1c0,0.7-0.4,1.1-1.1,1.1H215z"/>
			<path fill="#353535" d="M230.6,225.1h6.4c0.7,0,1.1,0.4,1.1,1.1v2.4c0,0.7-0.4,1.1-1.1,1.1h-9.8c-0.7,0-1.1-0.4-1.1-1.1V213
				c0-0.7,0.4-1.1,1.1-1.1h2.4c0.7,0,1.1,0.4,1.1,1.1V225.1z"/>
			<path fill="#353535" d="M246.3,222.9v2.3h6.8c0.7,0,1.1,0.4,1.1,1.1v2.4c0,0.7-0.4,1.1-1.1,1.1h-10.3c-0.7,0-1.1-0.4-1.1-1.1V213
				c0-0.7,0.4-1.1,1.1-1.1h10.3c0.7,0,1.1,0.4,1.1,1.1v2.4c0,0.7-0.4,1.1-1.1,1.1h-6.8v2.2h5c0.7,0,1.1,0.4,1.1,1.1v2
				c0,0.7-0.4,1.1-1.1,1.1H246.3z"/>
		</g>
		<g>
			<path fill="#353535" d="M138.4,243c0.4,0,0.6,0.2,0.6,0.6v4.9c0,1.3-0.5,2.6-1.3,3.5c-0.8,1-2,1.6-3.5,1.6
				c-1.4,0-2.6-0.6-3.4-1.5s-1.3-2.2-1.4-3.6v-4.9c0-0.4,0.2-0.6,0.6-0.6h1.4c0.4,0,0.6,0.2,0.6,0.6v4.9c0,0.7,0.2,1.4,0.6,1.8
				c0.4,0.5,0.9,0.7,1.5,0.7c0.6,0,1.1-0.3,1.5-0.7c0.4-0.4,0.6-1.1,0.6-1.8v-4.9c0-0.4,0.2-0.6,0.6-0.6H138.4z"/>
			<path fill="#353535" d="M149.4,246.4c0,1-0.4,2.1-1.2,2.7c-0.6,0.5-1.4,0.8-2.3,0.8h-2v2.9c0,0.4-0.2,0.6-0.6,0.6h-1.4
				c-0.4,0-0.6-0.2-0.6-0.6v-9.1c0-0.4,0.2-0.6,0.6-0.6h4.3c0.9,0,1.6,0.3,2.2,0.8c0.2,0.2,0.5,0.5,0.7,1
				C149.2,245.2,149.4,245.7,149.4,246.4z M146.8,246.4c0-0.5-0.3-0.9-0.9-0.9h-2.1v1.7h2C146.4,247.2,146.8,246.9,146.8,246.4z"/>
			<path fill="#353535" d="M156.1,253.6c-1.5,0-2.9-0.6-3.9-1.6s-1.6-2.3-1.6-3.8c0-1.5,0.6-2.9,1.6-3.9c1-1,2.3-1.6,3.9-1.6
				c1.5,0,2.9,0.6,3.9,1.6c1,1,1.6,2.3,1.6,3.9c0,1.5-0.6,2.9-1.6,3.8S157.6,253.6,156.1,253.6z M156.1,245.3c-0.8,0-1.5,0.3-2,0.8
				c-0.5,0.5-0.8,1.2-0.8,2s0.3,1.5,0.8,2c0.5,0.5,1.2,0.8,2,0.8s1.5-0.3,2-0.8c0.5-0.5,0.8-1.2,0.8-2s-0.3-1.5-0.8-2
				C157.6,245.7,156.9,245.3,156.1,245.3z"/>
			<path fill="#353535" d="M163.9,253.3c-0.4,0-0.6-0.2-0.6-0.6v-9.1c0-0.4,0.2-0.6,0.6-0.6h1.2c0.3,0,0.6,0.1,0.8,0.4l3.2,4.7v-4.5
				c0-0.4,0.2-0.6,0.6-0.6h1.4c0.4,0,0.6,0.2,0.6,0.6v9.1c0,0.4-0.2,0.6-0.6,0.6h-1.2c-0.3,0-0.6-0.1-0.8-0.4l-3.2-4.7v4.5
				c0,0.4-0.2,0.6-0.6,0.6H163.9z"/>
			<path fill="#353535" d="M190.5,253.3c-0.4,0-0.6-0.2-0.6-0.6v-7.1h-2.2c-0.4,0-0.6-0.2-0.6-0.6v-1.4c0-0.4,0.2-0.6,0.6-0.6h7
				c0.4,0,0.6,0.2,0.6,0.6v1.4c0,0.4-0.2,0.6-0.6,0.6h-2.2v7.1c0,0.4-0.2,0.6-0.6,0.6H190.5z"/>
			<path fill="#353535" d="M200.5,253.3c-0.4,0-0.6-0.2-0.6-0.6v-4.2l-3-4.8c-0.3-0.4-0.1-0.8,0.4-0.8h1.7c0.3,0,0.6,0.1,0.8,0.4
				l1.5,2.3l1.5-2.3c0.2-0.3,0.4-0.4,0.8-0.4h1.7c0.5,0,0.7,0.3,0.4,0.8l-3,4.8v4.2c0,0.4-0.2,0.6-0.6,0.6H200.5z"/>
			<path fill="#353535" d="M207.8,253.3c-0.4,0-0.6-0.2-0.6-0.6v-9.1c0-0.4,0.2-0.6,0.6-0.6h1.2c0.3,0,0.6,0.1,0.8,0.4l3.2,4.7v-4.5
				c0-0.4,0.2-0.6,0.6-0.6h1.4c0.4,0,0.6,0.2,0.6,0.6v9.1c0,0.4-0.2,0.6-0.6,0.6h-1.2c-0.3,0-0.6-0.1-0.8-0.4l-3.2-4.7v4.5
				c0,0.4-0.2,0.6-0.6,0.6H207.8z"/>
			<path fill="#353535" d="M220.5,249.4v1.3h4c0.4,0,0.6,0.2,0.6,0.6v1.4c0,0.4-0.2,0.6-0.6,0.6h-6c-0.4,0-0.6-0.2-0.6-0.6v-9.1
				c0-0.4,0.2-0.6,0.6-0.6h6c0.4,0,0.6,0.2,0.6,0.6v1.4c0,0.4-0.2,0.6-0.6,0.6h-4v1.3h2.9c0.4,0,0.6,0.2,0.6,0.6v1.2
				c0,0.4-0.2,0.6-0.6,0.6H220.5z"/>
		</g>
	</g>
	<path fill="#353535" d="M228.4,247.5v2h17.4c0.7-0.7,1.4-1.3,2.1-2H228.4z"/>
	<path fill="#353535" d="M126.1,247.5H108c0.7,0.7,1.4,1.3,2.1,2h16V247.5z"/>
	<rect x="175.4" y="247.5" fill="#353535" width="8" height="2"/>
</g>
<g>
	<g>
		<g>
			<polygon fill="#639E7F" points="239.4,125.5 239.4,175.8 237.2,175.8 236.3,172.8 236.4,172.8 236.4,133.6 219.4,145.1 
				231.1,156.3 216.4,142.2 			"/>
			<polygon fill="#639E7F" points="235,172.8 231.1,156.3 236.3,172.8 			"/>
			<polygon fill="#639E7F" points="179.4,102.1 181.4,102.5 179.4,102.8 			"/>
			<path fill="#639E7F" d="M179.4,102.8v11.3l13-9.3l-11.1-2.4l18.1-2.6v20.9l-3,7.4l23-19.4v24.5v42.4h-20h-3h-20v-59.5v-13
				L179.4,102.8z M216.4,172.8v-42.1v-15.2l-9.8,8.6l-7.2,5.4v43.3H216.4z M179.4,172.8h17v-43.6v-23.4l-17,12.1V172.8z"/>
		</g>
	</g>
	<g>
		<g>
			<polygon fill="#639E7F" points="116.4,125.5 116.4,175.8 118.7,175.8 119.6,172.8 119.4,172.8 119.4,133.6 136.4,145.1 
				124.8,156.3 139.4,142.2 			"/>
			<polygon fill="#639E7F" points="120.9,172.8 124.8,156.3 119.6,172.8 			"/>
			<polygon fill="#639E7F" points="176.4,102.1 174.5,102.5 176.4,102.8 			"/>
			<path fill="#639E7F" d="M176.4,102.8v11.3l-13-9.3l11.1-2.4l-18.1-2.6v20.9l3,7.4l-23-19.4v24.5v42.4h20h3h20v-59.5v-13
				L176.4,102.8z M139.4,172.8v-42.1v-15.2l9.8,8.6l7.2,5.4v43.3H139.4z M176.4,172.8h-17v-43.6v-23.4l17,12.1V172.8z"/>
		</g>
	</g>
</g>
<g>
	<g>
		<rect x="67.4" y="172.6" fill="#639E7F" width="221" height="10"/>
	</g>
	<g>
		<path fill="#639E7F" d="M238.7,177.6h-8c0-29.1-23.7-52.7-52.7-52.7s-52.7,23.7-52.7,52.7h-8c0-33.5,27.2-60.7,60.7-60.7
			S238.7,144.2,238.7,177.6z"/>
	</g>
	<g>
		<path fill="#639E7F" d="M258.7,177.6h-8c0-40.1-32.6-72.7-72.7-72.7c-40.1,0-72.7,32.6-72.7,72.7h-8c0-44.5,36.2-80.7,80.7-80.7
			C222.5,96.9,258.7,133.1,258.7,177.6z"/>
	</g>
</g>
<path fill="#639E7F" d="M196.4,122.7"/>
<g>
	<g>
		<polygon fill="#639E7F" points="256,158.5 257.2,177.6 252,175.8 256,163.6 239.7,174.5 239,169.6 		"/>
	</g>
	<g>
		<polygon fill="#639E7F" points="100.2,158.5 99,177.6 104.2,175.8 100.2,163.6 116.5,174.5 117.2,169.6 		"/>
	</g>
</g>
<g>
	<path fill="none" d="M67.4,177.6c0-61,49.5-110.5,110.5-110.5s110.5,49.5,110.5,110.5"/>
	<path fill="#353535" d="M36.5,120.4c0.4-0.9,1.1-1.4,2-1.4l26.9,1c1.3,0.1,1.9,0.8,1.4,2.1l-1.5,3.9c-0.4,0.9-1.1,1.4-2.1,1.3
		l-3.7-0.2l-3.1,8l2.9,2.4c0.8,0.7,1,1.5,0.6,2.4l-1.5,3.9c-0.5,1.3-1.4,1.5-2.4,0.6l-20.4-17.6c-0.7-0.7-0.9-1.5-0.6-2.4
		L36.5,120.4z M52.9,126.4l-8.4-0.4l6.5,5.2L52.9,126.4z"/>
	<path fill="#353535" d="M68.1,106l5.9-8.5c0.7-1,1.5-1.1,2.4-0.4l3.2,2.2c1,0.7,1.1,1.5,0.4,2.4l-9.1,13.1c-0.7,1-1.5,1.1-2.4,0.4
		l-20.8-14.5c-1-0.7-1.1-1.5-0.4-2.4l2.2-3.2c0.7-1,1.5-1.1,2.4-0.4L68.1,106z"/>
	<path fill="#353535" d="M83.4,81.5l2.5,2.7l8.2-7.5c0.9-0.8,1.7-0.8,2.5,0.1l2.6,2.8c0.8,0.9,0.8,1.7-0.1,2.5L86.7,93.4
		c-0.9,0.8-1.7,0.8-2.5-0.1L67.1,74.7c-0.8-0.9-0.8-1.7,0.1-2.5l12.3-11.3c0.9-0.8,1.7-0.8,2.5,0.1l2.6,2.8c0.8,0.9,0.8,1.7-0.1,2.5
		l-8.2,7.5l2.5,2.7l6-5.5c0.9-0.8,1.7-0.8,2.5,0.1l2.2,2.4c0.8,0.9,0.8,1.7-0.1,2.5L83.4,81.5z"/>
	<path fill="#353535" d="M106.5,51.6l0.7-8c0.1-0.9,0.5-1.6,1.3-2l4.4-2.4c1.3-0.7,2.2-0.1,2,1.3l-1.3,14.7l13.4,6.7
		c1.3,0.7,1.3,1.7,0.1,2.4l-4.4,2.4c-0.8,0.4-1.6,0.5-2.4,0.1l-7.4-3.7l-0.7,8.2c-0.1,0.9-0.5,1.6-1.3,2l-4.4,2.4
		c-1.3,0.7-2.2,0.1-2-1.3l1.3-14.9L92.6,53c-1.3-0.7-1.3-1.7-0.1-2.4l4.4-2.4c0.8-0.4,1.6-0.5,2.4-0.1L106.5,51.6z"/>
	<path fill="#353535" d="M149,56.8c-1.2,0.2-1.8-0.3-2-1.5l-3.5-25.1c-0.2-1.2,0.3-1.8,1.5-2l3.3-0.5c0.9-0.1,1.7,0.2,2.3,0.8
		l10.7,11.7l-1.7-12.3c-0.2-1.2,0.3-1.8,1.5-2l3.8-0.5c1.2-0.2,1.8,0.3,2,1.5l3.5,25.1c0.2,1.2-0.3,1.8-1.5,2l-3.3,0.5
		c-0.9,0.1-1.7-0.2-2.3-0.8l-10.7-11.8l1.7,12.4c0.2,1.2-0.3,1.8-1.5,2L149,56.8z"/>
	<path fill="#353535" d="M186.4,43.1l-0.3,3.6l11.1,1.1c1.2,0.1,1.7,0.7,1.6,1.9l-0.4,3.8c-0.1,1.2-0.8,1.7-1.9,1.6l-16.7-1.6
		c-1.2-0.1-1.7-0.7-1.6-1.9l2.4-25.2c0.1-1.2,0.8-1.7,1.9-1.6l16.7,1.6c1.2,0.1,1.7,0.8,1.6,1.9l-0.4,3.8c-0.1,1.2-0.8,1.7-1.9,1.6
		l-11.1-1.1l-0.3,3.6l8.2,0.8c1.2,0.1,1.7,0.8,1.6,1.9l-0.3,3.3c-0.1,1.2-0.8,1.7-1.9,1.6L186.4,43.1z"/>
	<path fill="#353535" d="M211.7,58.1c-1-0.4-1.4-1.1-1.3-2.1l3.8-25.8c0.2-1.2,1-1.7,2.1-1.2l3.7,1.4c1,0.4,1.4,1.1,1.3,2.1l-2,12.8
		l7.8-10.7c0.6-0.8,1.4-1.1,2.3-0.7l4,1.5c1,0.4,1.4,1.1,1.3,2.1l-1.2,13.1l7-10.8c0.6-0.9,1.4-1.1,2.4-0.8l3.7,1.4
		c1.2,0.4,1.5,1.3,0.8,2.3l-14.2,21.8c-0.6,0.9-1.4,1.1-2.4,0.8l-4.2-1.6c-1-0.4-1.4-1.1-1.3-2.1l1.3-14L218.3,59
		c-0.6,0.8-1.4,1-2.4,0.7L211.7,58.1z"/>
	<path fill="#353535" d="M260.2,50.2c0.7-0.9,1.6-1,2.5-0.3l2.5,2.1c0.8,0.6,1,1.4,0.8,2.3l-4.4,17.3l16-7.8
		c0.9-0.4,1.7-0.3,2.4,0.3l2.5,2.1c0.9,0.7,1,1.6,0.3,2.5L267,88.3c-0.7,0.9-1.6,1-2.5,0.3l-3-2.4c-0.9-0.7-1-1.6-0.3-2.5l6.3-7.8
		l-10,5.3c-0.9,0.5-1.7,0.4-2.5-0.2l-1.2-1c-0.8-0.6-1-1.4-0.7-2.4l3.2-10.8l-6.3,7.8c-0.7,0.9-1.6,1-2.5,0.3l-3-2.4
		c-0.9-0.7-1-1.6-0.3-2.5L260.2,50.2z"/>
	<path fill="#353535" d="M302.6,89.6c0.6,0.8,0.6,1.6,0,2.5l-15.4,22.1c-0.8,1.1-1.7,1.1-2.5,0l-2.4-3.4c-0.6-0.8-0.6-1.6,0-2.5
		l2.2-3.1l-5-7l-3.6,1.1c-1,0.3-1.8,0-2.4-0.8l-2.5-3.4c-0.8-1.1-0.5-2,0.8-2.4l25.8-7.6c1-0.3,1.7,0,2.3,0.8L302.6,89.6z
		 M288.7,100.2l4.9-6.9l-7.9,2.7L288.7,100.2z"/>
	<path fill="#353535" d="M289.1,122c-0.4-1.1-0.1-1.8,1-2.3l23.6-9.1c1.1-0.4,1.8-0.1,2.3,1l1.2,3.1c0.3,0.8,0.2,1.7-0.3,2.4
		l-8.9,13.1l11.6-4.5c1.1-0.4,1.8-0.1,2.3,1l1.4,3.6c0.4,1.1,0.1,1.8-1,2.3l-23.6,9.1c-1.1,0.4-1.8,0.1-2.3-1l-1.2-3.1
		c-0.3-0.8-0.2-1.7,0.3-2.4l9-13.2l-11.7,4.5c-1.1,0.4-1.8,0.1-2.3-1L289.1,122z"/>
</g>
<g>
	<g>
		<path fill="none" stroke="#353535" stroke-width="5" stroke-miterlimit="10" d="M177.9,352.6c-96.5,0-175-78.5-175-175
			c0-96.5,78.5-175,175-175s175,78.5,175,175C352.9,274.1,274.4,352.6,177.9,352.6z"/>
		<circle fill="none" stroke="#353535" stroke-width="8" stroke-miterlimit="10" cx="177.9" cy="177.6" r="165"/>
		<circle fill="none" stroke="#353535" stroke-width="8" stroke-miterlimit="10" cx="177.9" cy="177.6" r="110.5"/>
		<g>
			<path fill="none" d="M288.4,177.6c0,61-49.5,110.5-110.5,110.5S67.4,238.7,67.4,177.6"/>
			<path fill="#353535" d="M50,259.6c-0.7-0.9-0.6-1.8,0.3-2.5l20.2-15.3c0.9-0.7,1.8-0.6,2.5,0.3l5.6,7.3c2.3,3,3.1,6.7,2.5,10.6
				c-0.7,3.7-2.6,7-5.6,9.2c-3.1,2.4-7,3.3-10.6,2.8c-3.6-0.4-7.1-2.2-9.3-5.2L50,259.6z M70.5,251l-11.2,8.5l2.1,2.8
				c1,1.4,2.7,2.2,4.5,2.3c1.7,0.2,3.6-0.3,5.1-1.4c1.5-1.1,2.5-2.8,2.8-4.5c0.3-1.7,0-3.5-1.1-4.9L70.5,251z"/>
			<path fill="#353535" d="M89.1,298.4c-0.7,0.9-1.6,1-2.5,0.2L73.7,288c-0.9-0.7-1-1.6-0.2-2.5L89.6,266c0.7-0.9,1.6-1,2.5-0.2
				l12.9,10.7c0.9,0.7,1,1.6,0.2,2.5l-2.5,3c-0.7,0.9-1.6,1-2.5,0.2l-8.6-7.1l-2.3,2.8l6.3,5.2c0.9,0.7,1,1.6,0.2,2.5l-2.1,2.6
				c-0.7,0.9-1.6,1-2.5,0.2l-6.3-5.2l-2.3,2.8l8.6,7.1c0.9,0.7,1,1.6,0.2,2.5L89.1,298.4z"/>
			<path fill="#353535" d="M114.5,301.3l11.4-11c0.7-0.7,1.5-0.8,2.4-0.3l3.7,1.9c1.1,0.6,1.3,1.5,0.4,2.4L113.1,313
				c-0.7,0.7-1.6,0.8-2.4,0.3l-3.5-1.8c-0.9-0.5-1.3-1.2-1.2-2.2l3.7-26.7c0.2-1.3,1-1.7,2.2-1.1l3.7,1.9c0.9,0.4,1.3,1.2,1.2,2.2
				L114.5,301.3z"/>
			<path fill="#353535" d="M152,325.3c-0.3,1.1-1,1.6-2.1,1.3l-16.3-3.8c-1.1-0.3-1.6-1-1.3-2.1l5.7-24.7c0.3-1.1,1-1.6,2.1-1.3
				l16.3,3.8c1.1,0.3,1.6,1,1.3,2.1l-0.9,3.8c-0.3,1.1-1,1.6-2.1,1.3l-10.8-2.5l-0.8,3.5l8,1.9c1.1,0.3,1.6,1,1.3,2.1l-0.8,3.2
				c-0.3,1.1-1,1.6-2.1,1.3l-8-1.9l-0.8,3.6l10.8,2.5c1.1,0.3,1.6,1,1.3,2.1L152,325.3z"/>
			<path fill="#353535" d="M172.5,321.6l10.3,0.2c1.2,0,1.7,0.6,1.7,1.8l-0.1,3.9c0,1.2-0.6,1.7-1.8,1.7l-16-0.3
				c-1.2,0-1.7-0.6-1.7-1.8l0.4-25.4c0-1.2,0.6-1.7,1.8-1.7l3.9,0.1c1.2,0,1.7,0.6,1.7,1.8L172.5,321.6z"/>
			<path fill="#353535" d="M210,326.4c-4.1,0.9-8.1,0.1-11.4-2s-5.8-5.4-6.7-9.5c-0.9-4.1-0.1-8.1,2-11.4c2.1-3.3,5.4-5.8,9.5-6.7
				c4.1-0.9,8.1-0.1,11.4,2c3.3,2.1,5.8,5.4,6.7,9.5c0.9,4.1,0.1,8.1-2,11.4C217.4,323,214.1,325.5,210,326.4z M205.1,304
				c-2.1,0.5-3.8,1.8-4.9,3.4c-1.1,1.7-1.5,3.8-1.1,5.9s1.8,3.8,3.4,4.9c1.7,1.1,3.8,1.5,5.9,1c2.1-0.5,3.8-1.7,4.9-3.4
				c1.1-1.7,1.5-3.8,1-5.9s-1.7-3.8-3.4-4.9C209.2,304,207.1,303.5,205.1,304z"/>
			<path fill="#353535" d="M248.6,289.7c1.3,2.5,1.7,5.6,0.6,8.1c-0.9,2-2.5,3.7-4.7,4.9l-4.9,2.6l3.8,7.1c0.5,1,0.3,1.8-0.7,2.4
				l-3.4,1.8c-1,0.5-1.8,0.3-2.4-0.7l-11.8-22.4c-0.5-1-0.3-1.8,0.7-2.4l10.5-5.5c2.2-1.2,4.4-1.5,6.5-1c0.8,0.2,1.9,0.7,3,1.5
				C246.7,286.9,247.8,288.1,248.6,289.7z M242.3,293c-0.6-1.2-1.8-1.7-3.2-1l-5.2,2.7l2.3,4.3l4.9-2.6
				C242.3,295.8,243,294.3,242.3,293z"/>
			<path fill="#353535" d="M281.3,286.2c0.8,0.9,0.7,1.7-0.2,2.5l-12.7,10.9c-0.9,0.8-1.7,0.7-2.5-0.2L249.5,280
				c-0.8-0.9-0.7-1.7,0.2-2.5l12.7-10.9c0.9-0.8,1.7-0.7,2.5,0.2l2.5,2.9c0.8,0.9,0.7,1.7-0.2,2.5l-8.5,7.2l2.4,2.8l6.2-5.3
				c0.9-0.8,1.7-0.7,2.5,0.2l2.2,2.5c0.8,0.9,0.7,1.7-0.2,2.5l-6.2,5.3l2.4,2.8l8.5-7.2c0.9-0.8,1.7-0.7,2.5,0.2L281.3,286.2z"/>
			<path fill="#353535" d="M290.1,248.1c2.3,1.7,4,4.4,4,7.1c0,0.4,0,0.7-0.1,1c-0.1,0.3-0.1,0.4-0.1,0.5l10.4,1.4
				c1.4,0.2,1.6,1.2,0.8,2.3l-2.6,3.4c-0.6,0.8-1.3,1-2.3,0.8l-9.9-1.6l-2.1,2.8l6.9,5.1c0.9,0.7,1.1,1.5,0.4,2.5l-2.3,3.1
				c-0.7,0.9-1.5,1.1-2.5,0.4l-20.3-15.1c-0.9-0.7-1.1-1.5-0.4-2.5l7.1-9.5c1.5-2,3.3-3.2,5.5-3.7c0.8-0.2,2-0.2,3.3,0.1
				C287.3,246.4,288.7,247,290.1,248.1z M285.9,253.8c-1.1-0.8-2.4-0.8-3.3,0.5l-3.5,4.7l3.9,2.9l3.3-4.5
				C287.1,256.3,287.1,254.7,285.9,253.8z"/>
		</g>
	</g>
	<circle fill="#353535" cx="40.2" cy="177.6" r="9"/>
	<circle fill="#353535" cx="315.7" cy="177.6" r="9"/>
</g>
<g>
</g>
<g>
</g>
<g>
</g>
<g>
</g>
<g>
</g>
<g>
</g>
</svg>
